<?xml version="1.0" encoding="UTF-8"?>
<svg width="37px" height="37px" viewBox="0 0 37 37" version="1.1" xmlns="http://www.w3.org/2000/svg" xmlns:xlink="http://www.w3.org/1999/xlink">
    <!-- Generator: Sketch 53 (72520) - https://sketchapp.com -->
    <title>Group 6</title>
    <desc>Created with Sketch.</desc>
    <g id="BigK_V2" stroke="none" stroke-width="1" fill="none" fill-rule="evenodd">
        <g id="01a_Index_D" transform="translate(-611.000000, -1770.000000)">
            <g id="Group-144" transform="translate(136.000000, 1751.230112)">
                <g id="Group-143" transform="translate(40.000000, 18.000000)">
                    <g id="Group-7" transform="translate(435.500000, 0.615359)">
                        <g id="Group-6">
                            <circle id="Oval" fill="#EE4822" fill-rule="nonzero" cx="18.0000001" cy="18.486432" r="17.9987355"></circle>
                            <path d="M23.8333334,9.73643202 L12.1666667,9.73643202 C11.2416667,9.73643202 10.5000001,10.486432 10.5000001,11.4030987 L10.5000001,23.0697654 C10.5000001,23.986432 11.2416667,24.736432 12.1666667,24.736432 L15.5000001,24.736432 L18.0000001,27.236432 L20.5000001,24.736432 L23.8333334,24.736432 C24.7500001,24.736432 25.5000001,23.986432 25.5000001,23.0697654 L25.5000001,11.4030987 C25.5000001,10.486432 24.7500001,9.73643202 23.8333334,9.73643202 L23.8333334,9.73643202 Z M18.8333334,23.0697654 L17.1666667,23.0697654 L17.1666667,21.4030987 L18.8333334,21.4030987 L18.8333334,23.0697654 L18.8333334,23.0697654 Z M20.5583334,16.611432 L19.8083334,17.3780987 C19.2083334,17.986432 18.8333334,18.486432 18.8333334,19.736432 L17.1666667,19.736432 L17.1666667,19.3197654 C17.1666667,18.4030987 17.5416667,17.5697654 18.1416667,16.961432 L19.1750001,15.911432 C19.4833334,15.611432 19.6666667,15.1947654 19.6666667,14.736432 C19.6666667,13.8197654 18.9166667,13.0697654 18.0000001,13.0697654 C17.0833334,13.0697654 16.3333334,13.8197654 16.3333334,14.736432 L14.6666667,14.736432 C14.6666667,12.8947654 16.1583334,11.4030987 18.0000001,11.4030987 C19.8416667,11.4030987 21.3333334,12.8947654 21.3333334,14.736432 C21.3333334,15.4697654 21.0333334,16.136432 20.5583334,16.611432 L20.5583334,16.611432 Z" id="Shape" fill="#FFFFFF"></path>
                        </g>
                    </g>
                </g>
            </g>
        </g>
    </g>
</svg>