<?xml version="1.0" encoding="utf-8"?>
<!-- Generator: Adobe Illustrator 22.1.0, SVG Export Plug-In . SVG Version: 6.00 Build 0)  -->
<svg version="1.1" id="Capa_1" xmlns="http://www.w3.org/2000/svg" xmlns:xlink="http://www.w3.org/1999/xlink" x="0px" y="0px"
	 viewBox="0 0 459 535.5" style="enable-background:new 0 0 459 535.5;" xml:space="preserve">
<style type="text/css">
	.st0{fill:#FFFFFF;}
</style>
<g>
	<g id="live-help">
		<path class="st0" d="M408,0H51C23,0,0,22.9,0,51v357c0,28,23,51,51,51h102l76.5,76.5L306,459h102c28,0,51-23,51-51V51
			C459,22.9,436,0,408,0z M255,408h-51v-51h51V408z M308.5,211.6l-23,22.9C265.2,252.4,255,267.8,255,306h-51v-12.8
			c0-28,10.2-53.6,30.6-71.4l30.6-33.1c10.2-7.6,15.3-20.4,15.3-35.7c0-28.1-23-51-51-51s-51,22.9-51,51h-51
			c0-56.1,45.9-102,102-102s102,45.9,102,102C331.5,175.9,321.3,196.4,308.5,211.6z"/>
	</g>
</g>
</svg>
