<?xml version="1.0" encoding="utf-8"?>
<!-- Generator: Adobe Illustrator 22.0.1, SVG Export Plug-In . SVG Version: 6.00 Build 0)  -->
<svg version="1.1" id="Layer_1" xmlns="http://www.w3.org/2000/svg" xmlns:xlink="http://www.w3.org/1999/xlink" x="0px" y="0px"
	 viewBox="0 0 300 300" style="enable-background:new 0 0 300 300;" xml:space="preserve">
<style type="text/css">
	.st0{fill:#EF4923;}
</style>
<g>
	<g>
		<g>
			<path class="st0" d="M150,3.9C69.3,3.9,3.9,69.3,3.9,150S69.3,296.1,150,296.1S296.1,230.7,296.1,150S230.7,3.9,150,3.9z
				 M207.9,219.1c-1.6,0-3.2-0.1-4.7-0.2c-1.4,0.2-2.9,0.2-4.3,0.2h-36.7l39.5-39.8c2.3-2.3,3-5.8,1.8-8.9c-1.2-3.1-4.1-5.1-7.2-5.1
				h-19.4v-41.6c0-5-4.1-9.1-9.1-9.1h-27.5c-5,0-9.1,4.1-9.1,9.1v41.6h-21c0,0,0,0,0,0c-4.3,0-7.8,3.6-7.8,8.1
				c0,2.6,1.1,4.8,2.9,6.3l39,39.3H85.5c-21.3,0-38.7-17.3-38.7-38.7c0-17.8,12-32.7,28.4-37.3c1.8-15.1,14.7-26.9,30.3-26.9
				c4.7,0,9.2,1.1,13.2,3c7.8-21.6,28.4-37.1,52.7-37.1c29.1,0,53,22.2,55.7,50.6c15.4,7.2,26,22.8,26,41
				C253.2,198.9,232.9,219.1,207.9,219.1z"/>
		</g>
	</g>
</g>
</svg>
