<?xml version="1.0" encoding="utf-8"?>
<!-- Generator: Adobe Illustrator 22.1.0, SVG Export Plug-In . SVG Version: 6.00 Build 0)  -->
<svg version="1.1" id="Layer_1" xmlns="http://www.w3.org/2000/svg" xmlns:xlink="http://www.w3.org/1999/xlink" x="0px" y="0px"
	 viewBox="0 0 436 512" style="enable-background:new 0 0 436 512;" xml:space="preserve">
<style type="text/css">
	.st0{fill:#FFFFFF;}
</style>
<g>
	<polygon class="st0" points="178.3,321.9 239.4,321.9 239.4,279.1 186,279.1 	"/>
	<polygon class="st0" points="189.9,257.4 239.4,257.4 239.4,228.1 195.2,228.1 	"/>
	<polygon class="st0" points="310.6,257.4 305.3,228.1 261.1,228.1 261.1,257.4 	"/>
	<polygon class="st0" points="261,279.1 261,321.9 322.1,321.9 314.4,279.1 	"/>
	<path class="st0" d="M435.5,138.9l0-0.4c-0.2-4.9-0.4-10.1-0.5-15.9c-0.4-28.2-22.9-51.6-51.1-53.2C325.1,66.2,279.5,47,240.6,9
		l-0.3-0.3c-12.7-11.6-31.8-11.6-44.5,0L195.4,9C156.5,47,111,66.2,52.1,69.5C23.9,71,1.4,94.4,1,122.6c-0.1,5.8-0.2,11-0.5,15.9
		l0,0.9c-1.1,60-2.6,134.7,22.4,202.5c13.7,37.3,34.6,69.7,61.9,96.3c31.1,30.3,71.8,54.4,121,71.6c1.6,0.6,3.3,1,5,1.4
		c2.4,0.5,4.8,0.7,7.2,0.7s4.8-0.2,7.2-0.7c1.7-0.3,3.4-0.8,5-1.4c49.2-17.2,89.9-41.3,120.9-71.6c27.3-26.7,48.1-59.1,61.9-96.4
		C438,273.9,436.6,199.1,435.5,138.9z M206.4,151.5l3-2.6c4.5-3.9,11.4-3.4,15.3,1.1s3.4,11.4-1.1,15.3l-3,2.6
		c-2.1,1.8-4.6,2.7-7.1,2.7c-3,0-6-1.2-8.2-3.7C201.4,162.3,201.9,155.4,206.4,151.5z M158.6,137.1l0.3-3.9
		c0.4-6,5.5-10.5,11.5-10.1c6,0.4,10.5,5.6,10.1,11.5l-0.3,3.9c-0.4,5.7-5.1,10.1-10.8,10.1c-0.3,0-0.5,0-0.7,0
		C162.7,148.2,158.2,143,158.6,137.1z M113,142.3c4.5-3.9,11.4-3.4,15.3,1.1l2.5,3c3.9,4.5,3.4,11.4-1.1,15.3
		c-2.1,1.8-4.6,2.7-7.1,2.7c-3,0-6.1-1.3-8.2-3.7l-2.5-3C108,153.1,108.5,146.3,113,142.3z M100,208.5l-3.9-0.3
		c-6-0.4-10.5-5.6-10.1-11.5c0.4-6,5.5-10.5,11.6-10.1l3.9,0.3c6,0.4,10.5,5.6,10.1,11.5c-0.4,5.7-5.1,10.1-10.8,10.1
		C100.5,208.5,100.3,208.5,100,208.5z M123.6,252.6l-3,2.6c-2.1,1.8-4.6,2.7-7.1,2.7c-3,0-6.1-1.3-8.2-3.7
		c-3.9-4.5-3.4-11.4,1.1-15.3l3-2.6c4.5-4,11.4-3.5,15.3,1.1C128.6,241.8,128.1,248.7,123.6,252.6z M146.8,233.9
		c-2.1,1.8-4.6,2.7-7.1,2.7c-3,0-6.1-1.3-8.2-3.7c-16.5-18.9-14.5-47.8,4.4-64.3c9.1-8,20.9-11.9,33-11.1
		c12.2,0.8,23.2,6.3,31.2,15.5c3.9,4.5,3.4,11.4-1.1,15.3s-11.4,3.4-15.3-1.1c-4.2-4.8-10-7.7-16.3-8.1c-6.3-0.4-12.5,1.6-17.3,5.8
		c-9.9,8.7-11,23.8-2.3,33.7C151.7,223.2,151.3,230,146.8,233.9z M335.2,343.6c0,0-0.1,0-0.1,0H261v17.7h23.2
		c6,0,10.8,4.8,10.8,10.8c0,6-4.8,10.8-10.8,10.8h-66.4c-6,0-10.8-4.8-10.8-10.8c0-6,4.8-10.8,10.8-10.8h21.6v-17.7h-74
		c-3.7,0.3-11.9-3.2-10.7-12.7l20.8-115.4c1-5.1,5.4-8.9,10.7-8.9h128.2c5.3,0,9.8,3.8,10.7,8.9l20.5,113.9
		C347.9,337.6,341.7,343.6,335.2,343.6z"/>
</g>
</svg>
