<?xml version="1.0" encoding="utf-8"?>
<!-- Generator: Adobe Illustrator 22.1.0, SVG Export Plug-In . SVG Version: 6.00 Build 0)  -->
<svg version="1.1" id="Layer_1" xmlns="http://www.w3.org/2000/svg" xmlns:xlink="http://www.w3.org/1999/xlink" x="0px" y="0px"
	 viewBox="0 0 92 56.2" style="enable-background:new 0 0 92 56.2;" xml:space="preserve">
<style type="text/css">
	.st0{fill:none;}
	.st1{fill:#EF4923;}
	.st2{fill:#003D65;}
</style>
<g>
	<path class="st0" d="M58,50.9v-0.1C58,50.8,58,50.9,58,50.9L58,50.9z"/>
	<circle class="st1" cx="29" cy="13.2" r="8.7"/>
	<path class="st2" d="M38.9,10.3c3.1-1.1,6.6-0.8,9.4,0.9l10.1,6.3l33.3-7.1L61.9,0.5c-2.3-0.7-4.9-0.6-7.1,0.3L37.4,7.3
		C38,8.2,38.5,9.2,38.9,10.3L38.9,10.3z"/>
	<path class="st2" d="M18.8,14.3L0.1,21.4v2.4L19.5,17C19.2,16.2,19,15.3,18.8,14.3z"/>
	<path class="st2" d="M23.9,33.6v20h4.2c2.9,0,5.2-2.3,5.2-5.2V27.8l-5.8,1.2C25.4,29.5,23.9,31.4,23.9,33.6z"/>
	<path class="st2" d="M22.1,48.3V20.7c-0.9-0.8-1.7-1.8-2.2-2.9L3.2,23.5c-1.9,0.6-3.1,2.4-3.1,4.3v25.7h16.9
		C19.8,53.5,22.1,51.2,22.1,48.3z M15,45.1c0,1.2-0.9,2.1-2.1,2.2l-6.4,0.4v-6.5l8.5-1.1V45.1z M15,33c0,1.1-0.8,2-1.8,2.2l-6.7,1.3
		v-6.7l8.5-2.2V33z"/>
	<path class="st1" d="M89,15.9l-12.7,2.7l-8.6,11.2v-9.4l-7,1.5c-1.6,0.4-2.8,1.9-2.8,3.5v25.3v0.1h0c-0.1,2.5-2.1,4.5-4.6,4.7v0
		h-0.3H0.1v0.4H58h5.6c2.6,0,4.6-2.1,4.5-4.7l-0.3-11.2l9.1,15.9h11.9L75.4,33.4L89,15.9z"/>
	<path class="st2" d="M50,35.5l6.6-0.9V22.8l-18.5,4c-2.1,0.5-3.6,2.3-3.6,4.5v22.2h14.6h2.2c0.7,0,1.4-0.1,2-0.4
		c1.1-0.4,1.9-1.2,2.5-2.2c0.4-0.8,0.7-1.7,0.7-2.6v-0.9V36.7l-10.3,1.2l0,3.6l3.3-0.3l0,1.6c0,1.2-0.9,2.2-2.1,2.3l-4.2,0.3
		l-0.2-11.8l6.9-1.1L50,35.5z"/>
</g>
</svg>
