<svg height="27" viewBox="0 0 27 27" width="27" xmlns="http://www.w3.org/2000/svg"><path d="m54.4073221 40.0736206c.0519287-.4154296.0908752-.8308592.0908752-1.2722532 0-.4413939-.0389465-.8568235-.0908752-1.2722531l2.7392389-2.142059c.2466614-.1947326.3115722-.5452513.1557861-.8308592l-2.596435-4.4918326c-.1557861-.2856079-.5063048-.3894653-.7919127-.2856079l-3.2325616 1.2982175c-.6750732-.519287-1.402075-.9476988-2.1939877-1.2722531l-.4933226-3.4402765c-.0389466-.3115722-.3115722-.5452513-.6361266-.5452513h-5.1928701c-.3245544 0-.5971801.2336791-.6361266.5452513l-.4933227 3.4402765c-.7919127.3245543-1.5189145.7659483-2.1939876 1.2722531l-3.2325616-1.2982175c-.2985901-.1168396-.6361266 0-.7919127.2856079l-2.5964351 4.4918326c-.1687683.2856079-.0908752.6361266.1557861.8308592l2.739239 2.142059c-.0519287.4154296-.0908752.8438413-.0908752 1.2722531s.0389465.8568236.0908752 1.2722532l-2.739239 2.1420589c-.2466613.1947327-.3115722.5452514-.1557861.8308592l2.5964351 4.4918327c.1557861.2856079.5063048.3894653.7919127.2856079l3.2325616-1.2982176c.6750731.519287 1.4020749.9476988 2.1939876 1.2722532l.4933227 3.4402764c.0389465.3115723.3115722.5452514.6361266.5452514h5.1928701c.3245544 0 .59718-.2336791.6361266-.5452514l.4933226-3.4402764c.7919127-.3245544 1.5189145-.7659483 2.1939877-1.2722532l3.2325616 1.2982176c.29859.1168395.6361266 0 .7919127-.2856079l2.596435-4.4918327c.1557861-.2856078.0908753-.6361265-.1557861-.8308592zm-9.6457563 3.2715082c-2.5055598 0-4.5437613-2.0382015-4.5437613-4.5437614 0-2.5055598 2.0382015-4.5437613 4.5437613-4.5437613 2.5055599 0 4.5437614 2.0382015 4.5437614 4.5437613 0 2.5055599-2.0382015 4.5437614-4.5437614 4.5437614z" fill="#b5b5b5" fill-rule="evenodd" transform="translate(-31.28125 -25.252161)"/></svg>