<svg height="28" viewBox="0 0 29 28" width="29" xmlns="http://www.w3.org/2000/svg"><path d="m29.257342 147.46453h3.0143642v-3.014364h-3.0143642zm0 6.028729h3.0143642v-3.014365h-3.0143642zm3.0143642 6.028728v-3.014364h-3.0143642c0 1.6579 1.3413921 3.014364 3.0143642 3.014364zm-3.0143642-18.086185h3.0143642v-3.014364h-3.0143642zm18.0861852 18.086185h3.0143642v-3.014364h-3.0143642zm6.0287284-27.129278h-15.071821c-1.6729721 0-3.0143642 1.356464-3.0143642 3.014364v15.071821c0 1.657901 1.3413921 3.014365 3.0143642 3.014365h15.071821c1.6579003 0 3.0143642-1.356464 3.0143642-3.014365v-15.071821c0-1.6579-1.3564639-3.014364-3.0143642-3.014364zm0 18.086185h-15.071821v-15.071821h15.071821zm-12.0574568 9.043093h3.0143642v-3.014364h-3.0143642zm-6.0287284 0h3.0143642v-3.014364h-3.0143642z" fill="#b5b5b5" fill-rule="evenodd" transform="translate(-28.28125 -132.252161)"/></svg>