<?xml version="1.0" encoding="UTF-8"?>
<svg width="38px" height="39px" viewBox="0 0 38 39" version="1.1" xmlns="http://www.w3.org/2000/svg" xmlns:xlink="http://www.w3.org/1999/xlink">
    <!-- Generator: Sketch 53 (72520) - https://sketchapp.com -->
    <title>Group 119 Copy</title>
    <desc>Created with Sketch.</desc>
    <defs>
        <linearGradient x1="100%" y1="50%" x2="0%" y2="50%" id="linearGradient-1">
            <stop stop-color="#F6542F" offset="0%"></stop>
            <stop stop-color="#D62800" offset="100%"></stop>
        </linearGradient>
    </defs>
    <g id="BigK_V2" stroke="none" stroke-width="1" fill="none" fill-rule="evenodd">
        <g id="00_Style" transform="translate(-198.000000, -539.000000)">
            <g id="Group-119-Copy" transform="translate(198.000000, 539.000000)">
                <g id="Group-82">
                    <circle id="Oval" fill="url(#linearGradient-1)" fill-rule="nonzero" cx="19" cy="19.7561156" r="19"></circle>
                    <path d="M22.4351058,21.8190087 L21.7124071,21.8190087 L21.4562607,21.5720104 C22.352773,20.5291288 22.89251,19.1752123 22.89251,17.7023706 C22.89251,14.4182083 20.2304174,11.7561156 16.946255,11.7561156 C13.6620926,11.7561156 11,14.4182083 11,17.7023706 C11,20.986533 13.6620926,23.6486256 16.946255,23.6486256 C18.4190966,23.6486256 19.7730132,23.1088886 20.8158948,22.2123764 L21.0628931,22.4685227 L21.0628931,23.1912214 L25.6369354,27.7561156 L27,26.393051 L22.4351058,21.8190087 L22.4351058,21.8190087 Z M16.946255,21.8190087 C14.6683819,21.8190087 12.8296169,19.9802437 12.8296169,17.7023706 C12.8296169,15.4244976 14.6683819,13.5857326 16.946255,13.5857326 C19.2241281,13.5857326 21.0628931,15.4244976 21.0628931,17.7023706 C21.0628931,19.9802437 19.2241281,21.8190087 16.946255,21.8190087 L16.946255,21.8190087 Z" id="Shape" fill="#FFFFFF"></path>
                </g>
            </g>
        </g>
    </g>
</svg>