<?xml version="1.0" encoding="UTF-8"?>
<svg width="48px" height="48px" viewBox="0 0 48 48" version="1.1" xmlns="http://www.w3.org/2000/svg" xmlns:xlink="http://www.w3.org/1999/xlink">
    <!-- Generator: Sketch 53 (72520) - https://sketchapp.com -->
    <title>Group 55</title>
    <desc>Created with Sketch.</desc>
    <defs>
        <linearGradient x1="100%" y1="50%" x2="0%" y2="50%" id="linearGradient-1">
            <stop stop-color="#F6542F" offset="0%"></stop>
            <stop stop-color="#D62800" offset="100%"></stop>
        </linearGradient>
    </defs>
    <g id="BigK_V2" stroke="none" stroke-width="1" fill="none" fill-rule="evenodd">
        <g id="01a_Index_D" transform="translate(-588.000000, -702.000000)">
            <g id="Group-60" transform="translate(136.000000, 450.000000)">
                <g id="Group-66" transform="translate(60.000000, 201.000000)">
                    <g id="Group-126" transform="translate(379.500000, 38.295189)">
                        <g id="Group-123" transform="translate(13.000000, 12.000000)">
                            <g id="Group-55" transform="translate(0.000000, 0.445138)">
                                <circle id="Oval" fill="url(#linearGradient-1)" fill-rule="nonzero" cx="23.6132812" cy="24" r="23.5"></circle>
                                <path d="M25.6625349,28.7743771 L25.6625349,25.5414129 C26.5106222,25.8083877 26.9367713,26.2998067 26.9352975,27.0251445 C26.9281388,27.7001613 26.6182122,28.2225308 26.0055176,28.5926742 L25.6625349,28.7743771 Z M22.3868295,21.6867005 C21.7050752,21.423305 21.3549339,20.9790488 21.35346,20.3492998 C21.3507229,19.8218771 21.6520171,19.4100452 22.2645011,19.1180152 L22.3868295,19.0723263 L22.3868295,21.6867005 Z M25.6625349,19.1504396 C26.031415,19.3245628 26.3899782,19.5570077 26.7344347,19.8534593 C26.9439299,20.027793 27.1877445,20.1189603 27.4660889,20.1195919 C27.690112,20.1202236 27.9973015,19.963997 27.9973015,19.963997 L29.7635884,18.8613572 C30.0029815,18.7084994 30.1208884,18.5147952 30.1293103,18.2785604 C30.1324685,18.0907516 30.0547763,17.9242082 29.895602,17.7829305 C28.8034897,16.536697 27.3917655,15.7639859 25.6625349,15.4618496 L25.6625349,13.8016788 C25.6625349,13.3296302 25.2795482,12.9451696 24.8087629,12.9451696 L23.240391,12.9451696 C22.7683424,12.9451696 22.3868295,13.3296302 22.3868295,13.8016788 L22.3868295,15.4188978 C21.5730616,15.5306988 20.8414074,15.7374569 20.1929196,16.0360139 C18.081755,16.9950599 17.0488066,18.4349976 17.083126,20.3400357 C17.0974432,21.2776058 17.381683,22.1086387 17.9255284,22.8301866 C18.8424649,24.0591551 20.3318813,24.8295502 22.3868295,25.1460038 L22.3868295,28.8310145 C21.5000014,28.5166664 20.6603361,27.9326063 19.8697284,27.0752549 C19.6947631,26.8484947 19.4623181,26.7375359 19.1740779,26.7375359 L18.7047665,26.8731288 L18.6990817,26.8752343 L17.1006014,27.8136467 C16.8277313,27.9730315 16.6986654,28.1816845 16.7030869,28.4398163 L16.887948,28.8948105 C17.3029381,29.4759229 17.862364,30.0317696 18.5626466,30.5636138 C19.6947631,31.4352824 20.9689994,31.9755485 22.3868295,32.2014665 L22.3868295,33.6550897 C22.3868295,34.1279805 22.7683424,34.5103356 23.240391,34.5103356 L24.8087629,34.5103356 C25.2795482,34.5103356 25.6625349,34.1279805 25.6625349,33.6550897 L25.6625349,32.199361 C26.9211908,32.0136577 28.0143558,31.6203541 28.9384509,31.0112388 C30.4021805,30.0448236 31.1523629,28.7160553 31.1856295,27.0158804 C31.2028944,25.9582979 30.9129699,25.0571525 30.3015385,24.3166553 C29.3115419,23.1359022 27.7646459,22.3962472 25.6625349,22.1012695 L25.6625349,19.1504396 Z" id="Fill-4" fill="#FFFFFF"></path>
                            </g>
                        </g>
                    </g>
                </g>
            </g>
        </g>
    </g>
</svg>