<?xml version="1.0" encoding="UTF-8"?>
<svg width="37px" height="37px" viewBox="0 0 37 37" version="1.1" xmlns="http://www.w3.org/2000/svg" xmlns:xlink="http://www.w3.org/1999/xlink">
    <!-- Generator: Sketch 53 (72520) - https://sketchapp.com -->
    <title>Group 2</title>
    <desc>Created with Sketch.</desc>
    <g id="BigK_V2" stroke="none" stroke-width="1" fill="none" fill-rule="evenodd">
        <g id="01a_Index_D" transform="translate(-176.000000, -1770.000000)">
            <g id="Group-144" transform="translate(136.000000, 1751.230112)">
                <g id="Group-143" transform="translate(40.000000, 18.000000)">
                    <g id="Group-13">
                        <g id="Group-2">
                            <circle id="Oval" fill="#EE4822" fill-rule="nonzero" cx="18.8574219" cy="18.9023967" r="17.9987355"></circle>
                            <path d="M11.0574219,25.9023967 L14.2574219,25.9023967 L14.2574219,16.3023967 L11.0574219,16.3023967 L11.0574219,25.9023967 L11.0574219,25.9023967 Z M28.6574219,17.1023967 C28.6574219,16.2223967 27.9374219,15.5023967 27.0574219,15.5023967 L22.0094219,15.5023967 L22.7694219,11.8463967 L22.7934219,11.5903967 C22.7934219,11.2623967 22.6574219,10.9583967 22.4414219,10.7423967 L21.5934219,9.90239665 L16.3294219,15.1743967 C16.0334219,15.4623967 15.8574219,15.8623967 15.8574219,16.3023967 L15.8574219,24.3023967 C15.8574219,25.1823967 16.5774219,25.9023967 17.4574219,25.9023967 L24.6574219,25.9023967 C25.3214219,25.9023967 25.8894219,25.5023967 26.1294219,24.9263967 L28.5454219,19.2863967 C28.6174219,19.1023967 28.6574219,18.9103967 28.6574219,18.7023967 L28.6574219,17.1743967 L28.6494219,17.1663967 L28.6574219,17.1023967 L28.6574219,17.1023967 Z" id="Shape" fill="#FFFFFF"></path>
                        </g>
                    </g>
                </g>
            </g>
        </g>
    </g>
</svg>