<?xml version="1.0" encoding="UTF-8"?>
<svg width="48px" height="48px" viewBox="0 0 48 48" version="1.1" xmlns="http://www.w3.org/2000/svg" xmlns:xlink="http://www.w3.org/1999/xlink">
    <!-- Generator: Sketch 53 (72520) - https://sketchapp.com -->
    <title>Group 73</title>
    <desc>Created with Sketch.</desc>
    <defs>
        <linearGradient x1="100%" y1="50%" x2="0%" y2="50%" id="linearGradient-1">
            <stop stop-color="#F6542F" offset="0%"></stop>
            <stop stop-color="#D62800" offset="100%"></stop>
        </linearGradient>
    </defs>
    <g id="BigK_V2" stroke="none" stroke-width="1" fill="none" fill-rule="evenodd">
        <g id="01a_Index_D" transform="translate(-209.000000, -702.000000)">
            <g id="Group-60" transform="translate(136.000000, 450.000000)">
                <g id="Group-66" transform="translate(60.000000, 201.000000)">
                    <g id="Group-54" transform="translate(0.500000, 38.740327)">
                        <g id="Group-73" transform="translate(13.113281, 12.500000)">
                            <circle id="Oval" fill="url(#linearGradient-1)" fill-rule="nonzero" cx="23.5" cy="23.5" r="23.5"></circle>
                            <path d="M27.6340165,16.5142846 L27.0747786,17.8201901 C27.0546058,17.8680038 27.0170379,17.904752 26.9692697,17.9241507 C26.9208641,17.9432307 26.8674949,17.9429119 26.82,17.9222837 L26.167366,17.6431884 L26.167366,17.6430063 L26.1645427,17.6423688 L26.156847,17.6388169 L26.1139513,17.6215584 C26.0721029,17.604983 26.0075317,17.5801199 25.9206474,17.5497468 C25.7492922,17.4885909 25.4945591,17.4048031 25.1783058,17.3205599 C24.5483036,17.1524834 23.6771838,16.9863195 22.7499172,16.9865017 C21.8486976,16.9863195 20.9322231,17.1436493 20.23683,17.3098588 C19.5409816,17.4749753 19.0602947,17.6473323 19.0305136,17.6588076 L19.0265063,17.6600826 L18.3617595,17.9063003 C18.2605311,17.9435494 18.1494668,17.8921839 18.1116257,17.7916385 L17.6181429,16.4596859 C17.5812126,16.3591406 17.6321227,16.2469378 17.7326681,16.2096887 L18.3986444,15.9634255 C18.4237807,15.9541359 18.946407,15.7612419 19.7427553,15.5677559 C20.5400143,15.3745886 21.6115872,15.1782793 22.7499172,15.1775051 C23.8705788,15.1796909 24.8732545,15.3691697 25.6093575,15.5629745 C26.3448686,15.7562784 26.8215482,15.9574146 26.8708646,15.9769499 L26.8789702,15.980183 L27.5312854,16.2590506 C27.5793723,16.2796788 27.6166215,16.3172012 27.6358835,16.3654702 C27.6544626,16.4136027 27.6544626,16.4665165 27.6340165,16.5142846 L27.6340165,16.5142846 Z M11.6199392,23.5881596 C11.857004,25.3654624 12.7681962,26.9833864 14.1470062,28.2810497 L13.7224662,32.5719862 C13.7001532,32.7958908 13.8407254,33.0029013 14.0567066,33.0654234 L15.5801416,33.5053093 C15.7933907,33.5670572 16.020574,33.4690164 16.1232595,33.2716142 L17.5827608,30.4464631 C19.0959955,31.0601631 20.8100022,31.4087021 22.6282427,31.4087021 C24.3332786,31.4087021 25.9482427,31.1032865 27.3913052,30.5589391 L28.79343,33.2716142 C28.8952049,33.4690164 29.1229801,33.5669206 29.3362292,33.5053093 L30.8590266,33.0654234 C31.0756454,33.0030379 31.2159444,32.7958908 31.193267,32.5719862 L30.7969599,28.563196 C31.6047835,27.8650707 32.270441,27.0623928 32.7601897,26.1847157 L35.0203653,26.1847157 C35.1333422,26.1847157 35.2391698,26.1409548 35.3189048,26.0609011 C35.3986853,25.9812116 35.4421275,25.8751563 35.4421275,25.7623615 L35.4421275,19.9880625 C35.4421275,19.8754043 35.3986853,19.769258 35.3189048,19.6896596 C35.2391698,19.609788 35.1333422,19.5658449 35.0203653,19.5658449 L32.983639,19.5658449 C32.7142431,19.001689 32.3719426,18.4663124 31.9678942,17.9646785 C32.0429845,17.7880867 32.983639,15.5817357 33.6818554,14.20584 C33.9664606,14.0384011 30.543684,12.2881015 27.7333324,14.8964973 C26.2052071,14.267588 24.4694793,13.9100782 22.6282427,13.9100782 C16.5139656,13.9100782 11.5578725,17.8273394 11.5578725,22.6592536 C11.5578725,22.7910372 11.5625173,22.9215002 11.5699398,23.0512802 L11.6199392,23.5881596 Z" id="Fill-1" fill="#FFFFFF"></path>
                        </g>
                    </g>
                </g>
            </g>
        </g>
    </g>
</svg>